<svg xmlns="http://www.w3.org/2000/svg" viewBox="0 0 104 126">
  <g fill="none" fill-rule="evenodd">
    <path fill="#E11505" d="M26.4566375 2.04744315C26.4566375 3.08213703 25.6166098 3.92126239 24.5808034 3.92126239 23.5449969 3.92126239 22.7049693 3.08213703 22.7049693 2.04744315 22.7049693 1.01274927 23.5449969.173623907 24.5808034.173623907 25.6166098.173623907 26.4566375 1.01274927 26.4566375 2.04744315M31.0560734 4.60256851C31.0560734 5.63726239 30.2160458 6.47638776 29.1802393 6.47638776 28.1444329 6.47638776 27.3044052 5.63726239 27.3044052 4.60256851 27.3044052 3.56787464 28.1444329 2.72874927 29.1802393 2.72874927 30.2160458 2.72874927 31.0560734 3.56787464 31.0560734 4.60256851M33.3680845 8.75476093C33.3680845 9.78945481 32.5280568 10.6285802 31.4922504 10.6285802 30.4564439 10.6285802 29.6164163 9.78945481 29.6164163 8.75476093 29.6164163 7.72006706 30.4564439 6.88094169 31.4922504 6.88094169 32.5280568 6.88094169 33.3680845 7.72006706 33.3680845 8.75476093M36.1719329 12.9069534C36.1719329 13.9416472 35.3319052 14.7807726 34.2960988 14.7807726 33.2602923 14.7807726 32.4202647 13.9416472 32.4202647 12.9069534 32.4202647 11.8722595 33.2602923 11.0331341 34.2960988 11.0331341 35.3319052 11.0331341 36.1719329 11.8722595 36.1719329 12.9069534M24.9808978 7.10868805C24.9808978 8.14338192 24.1408702 8.98250729 23.1050637 8.98250729 22.0692573 8.98250729 21.2292296 8.14338192 21.2292296 7.10868805 21.2292296 6.07399417 22.0692573 5.2348688 23.1050637 5.2348688 24.1408702 5.2348688 24.9808978 6.07399417 24.9808978 7.10868805M26.4566375 11.6657755C26.4566375 12.7004694 25.6166098 13.5395948 24.5808034 13.5395948 23.5449969 13.5395948 22.7049693 12.7004694 22.7049693 11.6657755 22.7049693 10.6310816 23.5449969 9.79195627 24.5808034 9.79195627 25.6166098 9.79195627 26.4566375 10.6310816 26.4566375 11.6657755M27.8094462 16.469484C27.8094462 17.5041778 26.9694186 18.3433032 25.9336121 18.3433032 24.8978057 18.3433032 24.057778 17.5041778 24.057778 16.469484 24.057778 15.4347901 24.8978057 14.5956647 25.9336121 14.5956647 26.9694186 14.5956647 27.8094462 15.4347901 27.8094462 16.469484"/>
    <path fill="#E11505" d="M26,5 C26,5 32.6059133,18.4112245 39.5955005,27.1640525 C45.5152055,34.5763265 49.9106474,37.6588047 50.9353232,38.4126531 C51.959999,39.1665015 53.670883,40.7026239 52.7238693,41.9351603 C51.9032014,43.003965 50.5423763,42.8618367 48.8848125,41.7430029 C46.9455788,40.4342857 41.5045967,35.1061808 36.6014534,27.9053936 C33.2932807,23.0468805 26.341945,7.04437318 26,5"/>
    <path fill="#E11505" d="M48.040968,33.1546918 C48.040968,33.1546918 39.6214092,22.621562 39.6372418,12.3525191 C39.6485509,4.8861675 45.0519963,4.49284675 46.8195948,4.60747165 C46.8195948,4.60747165 49.5812553,-1.33226763e-15 54.7200699,-1.33226763e-15 C58.367226,-1.33226763e-15 61.4059572,2.69031394 61.4059572,2.69031394 C61.4059572,2.69031394 69.8854537,1.99357432 71.4065157,7.95182181 C72.2354662,11.1995274 69.859443,16.4149606 68.6991385,18.1725425 C67.5388339,19.9290006 64.8314567,23.4430405 64.7206284,25.1444337 C64.7206284,25.1444337 66.5017976,24.2487862 69.1899495,21.0033281 C71.8713161,17.7668602 73.0587622,13.2672708 76.7059183,13.2672708 C79.6892354,13.2672708 82.2903079,16.74535 82.2903079,16.74535 C82.2903079,16.74535 93.896746,16.0980564 90.2382809,28.2494201 C90.2382809,28.2494201 91.4415597,29.6934691 92.4944286,30.8891642 C93.5461666,32.0837355 94.3479755,33.9267242 93.8469863,36.0180668 C93.3459971,38.1094094 91.792139,41.2975551 88.0341547,43.0405279 C84.2750394,44.7835007 83.3725803,44.7329309 82.0697822,44.7329309 C80.7669841,44.7329309 76.8076994,42.6910343 73.3991634,42.0943105 C69.9917584,41.496463 66.0946732,41.0244781 66.0946732,41.0244781 C66.0946732,41.0244781 66.1828835,42.2932185 69.6909387,43.13942 C73.198994,43.9867452 78.3106669,44.583469 81.6694432,47.8705067 C85.0270886,51.1575444 86.6103502,53.7557089 86.429406,55.5897074 C86.1794768,58.1294357 83.7231596,59.3251307 81.8696127,59.7229466 C81.8696127,59.7229466 82.6714216,64.8024031 80.265995,66.8442997 C77.8605683,68.8861963 74.1512127,68.0399948 74.1512127,68.0399948 C74.1512127,68.0399948 74.3513822,76.9537668 64.7794352,73.9162068 C64.7794352,73.9162068 60.7206312,78 55.4585483,78 C50.1964655,78 45.8854705,72.0237721 45.8854705,69.4345978 C45.8854705,66.8442997 46.6872793,65.0518809 46.8376892,63.259462 C47.0593458,60.6174704 46.9632192,60.7320953 46.8885797,58.5778213 C46.8885797,58.5778213 46.1365305,59.1756689 45.5348911,61.4659194 C44.9332517,63.7572937 44.1314428,65.0518809 42.8286448,66.7948537 C41.5258467,68.5378265 40.3225679,69.334582 38.7698407,71.2270167 C37.2159826,73.1194514 35.2617855,76.1570113 31.2516102,76.1570113 C27.2425657,76.1570113 25.7395982,73.9656529 24.4368001,69.0356582 C24.4368001,69.0356582 22.7822918,69.8324137 20.8778543,69.8324137 C18.9734168,69.8324137 14.5629025,67.4915933 14.5629025,64.4540333 C14.5629025,63.1100001 15.0141321,61.3670273 15.0141321,61.3670273 C15.0141321,61.3670273 13.711334,59.5240387 13.711334,57.3821262 C13.711334,55.2413376 14.5629025,53.6478267 16.3169302,52.1532078 C18.0720887,50.6597127 19.8261163,49.6134795 22.1806524,49.4640176 C24.5363194,49.3145557 26.3502848,49.1437422 29.6479924,48.1199844 C35.2617855,46.3770116 36.9151629,44.2845452 36.9151629,44.2845452 C36.9151629,44.2845452 34.5097362,44.6340388 31.8034899,45.2813324 C29.0972435,45.928626 24.8868987,48.2694463 21.830073,48.2694463 C18.2213676,48.2694463 10.5040985,46.3264418 10.5040985,40.5502456 C10.5040985,39.1556426 10.9044375,37.6115777 10.9044375,37.6115777 C10.9044375,37.6115777 9,35.5202351 9,33.3783227 C9,31.237534 11.6564867,28.5977899 15.5151213,26.9548329 C15.5151213,26.9548329 15.8668315,19.9829417 20.778335,19.9829417 C25.6887076,19.9829417 35.7876545,26.4064314 38.0924309,32.632137 C38.0924309,32.632137 33.0565283,29.5934533 29.297413,30.5396706 C29.297413,30.5396706 36.4164355,32.1343053 39.2708299,34.5245717 C39.2708299,34.5245717 31.2403011,32.7310291 25.4885381,33.5783544 C25.4885381,33.5783544 38.3683708,34.9729574 42.2530161,37.337377 C42.2530161,37.337377 34.0585067,37.9857943 29.4975825,39.6781974 C29.4975825,39.6781974 41.4512072,38.3341642 46.5628802,41.47174 C46.5628802,41.47174 37.5168023,44.7082079 33.9578565,51.1080984 C33.9578565,51.1080984 41.750896,44.9329626 47.3398093,44.0114683 C47.3398093,44.0114683 41.7260162,48.7762682 40.9490871,53.0342463 C40.9490871,53.0342463 43.2663035,50.281001 45.2125843,48.1694305 C47.1633887,46.0533648 49.0678262,45.1813165 50.0709354,43.9608984 C50.0709354,43.9608984 52.8518213,47.6221527 53.2532912,50.8833437 C53.643452,54.0568802 53.7542803,55.5897074 54.3050292,56.6359406 C54.3050292,56.6359406 55.1577286,47.8705067 52.9027118,43.6878215 C52.9027118,43.6878215 61.0463307,49.9876961 63.9527465,54.64349 C63.9527465,54.64349 60.219642,46.7006584 54.8817887,42.8157732 C54.8817887,42.8157732 60.219642,43.3383279 68.0126815,48.792001 C68.0126815,48.792001 64.0285169,43.7867135 54.4056794,40.2760449 C54.4056794,40.2760449 58.1399148,35.69442 69.8662284,31.6859197 C69.8662284,31.6859197 64.3790962,31.5364578 55.9595375,36.3169906 C55.9595375,36.3169906 60.9298479,30.652048 69.6162993,25.7591379 C69.6162993,25.7591379 64.0782765,27.1042948 60.0794102,29.8350646 C55.9900718,32.6287657 54.7200699,34.1503551 54.3559197,35.69442 C54.3559197,35.69442 53.3279306,33.7019695 57.3120952,25.386045 C57.3120952,25.386045 54.0053404,28.3235892 52.4266024,32.905214 C52.4266024,32.905214 52.0681068,26.5064473 55.2832586,20.6549583 C55.2832586,20.6549583 50.8976242,24.4151047 50.2213453,31.8601046 C50.2213453,31.8601046 48.8676567,25.4602141 50.4712744,18.4388768 C50.4712744,18.4388768 47.4902191,21.3269749 47.3398093,25.7096918 C47.1893994,30.0924088 48.040968,33.1546918 48.040968,33.1546918"/>
    <path fill="#007FBA" d="M104,102.227019 C104,102.227019 101.541659,106 96.5248685,106 C91.508078,106 89.1430197,102.227019 89.1430197,102.227019 L89.1430197,102.227019 C89.1430197,102.227019 86.6846786,106 81.6678881,106 C76.6499601,106 74.2860393,102.227019 74.2860393,102.227019 C74.2860393,102.227019 71.8276982,106 66.8097702,106 C61.7929797,106 59.429059,102.227019 59.429059,102.227019 L59.4279214,102.227019 C59.4279214,102.227019 56.9695803,106 51.9527898,106 C46.9359994,106 44.5720786,102.227019 44.5720786,102.227019 C44.5720786,102.227019 42.1125999,106 37.0958095,106 C32.079019,106 29.7139607,102.227019 29.7139607,102.227019 L29.7139607,102.227019 C29.7139607,102.227019 27.2556196,106 22.2388292,106 C17.2209011,106 14.8569803,102.227019 14.8569803,102.227019 L14.8569803,102.227019 C14.8569803,102.227019 12.3986393,106 7.38071122,106 C2.36392076,106 0,102.227019 0,102.227019 L0,98 C0,98 2.36392076,101.772981 7.38071122,101.772981 C12.3986393,101.772981 14.8569803,98 14.8569803,98 L14.8569803,98 C14.8569803,98 17.2209011,101.772981 22.2388292,101.772981 C27.2556196,101.772981 29.7139607,98 29.7139607,98 L29.7139607,98 C29.7139607,98 32.079019,101.772981 37.0958095,101.772981 C42.1125999,101.772981 44.570941,98 44.570941,98 C44.570941,98 46.9359994,101.772981 51.9527898,101.772981 C56.9695803,101.772981 59.4279214,98 59.4279214,98 L59.429059,98 C59.429059,98 61.7929797,101.772981 66.8097702,101.772981 C71.8276982,101.772981 74.2860393,98 74.2860393,98 C74.2860393,98 76.6499601,101.772981 81.6678881,101.772981 C86.6846786,101.772981 89.1430197,98 89.1430197,98 L89.1430197,98 C89.1430197,98 91.508078,101.772981 96.5248685,101.772981 C101.541659,101.772981 104,98 104,98 L104,102.227019 Z"/>
    <path fill="#007FBA" d="M104,109.227019 C104,109.227019 101.541659,113 96.5248685,113 C91.508078,113 89.1430197,109.227019 89.1430197,109.227019 L89.1430197,109.227019 C89.1430197,109.227019 86.6846786,113 81.6678881,113 C76.6499601,113 74.2860393,109.227019 74.2860393,109.227019 C74.2860393,109.227019 71.8276982,113 66.8097702,113 C61.7929797,113 59.429059,109.227019 59.429059,109.227019 L59.4279214,109.227019 C59.4279214,109.227019 56.9695803,113 51.9527898,113 C46.9359994,113 44.5720786,109.227019 44.5720786,109.227019 C44.5720786,109.227019 42.1125999,113 37.0958095,113 C32.079019,113 29.7139607,109.227019 29.7139607,109.227019 L29.7139607,109.227019 C29.7139607,109.227019 27.2556196,113 22.2388292,113 C17.2209011,113 14.8569803,109.227019 14.8569803,109.227019 L14.8569803,109.227019 C14.8569803,109.227019 12.3986393,113 7.38071122,113 C2.36392076,113 0,109.227019 0,109.227019 L0,105 C0,105 2.36392076,108.772981 7.38071122,108.772981 C12.3986393,108.772981 14.8569803,105 14.8569803,105 L14.8569803,105 C14.8569803,105 17.2209011,108.772981 22.2388292,108.772981 C27.2556196,108.772981 29.7139607,105 29.7139607,105 L29.7139607,105 C29.7139607,105 32.079019,108.772981 37.0958095,108.772981 C42.1125999,108.772981 44.570941,105 44.570941,105 C44.570941,105 46.9359994,108.772981 51.9527898,108.772981 C56.9695803,108.772981 59.4279214,105 59.4279214,105 L59.429059,105 C59.429059,105 61.7929797,108.772981 66.8097702,108.772981 C71.8276982,108.772981 74.2860393,105 74.2860393,105 C74.2860393,105 76.6499601,108.772981 81.6678881,108.772981 C86.6846786,108.772981 89.1430197,105 89.1430197,105 L89.1430197,105 C89.1430197,105 91.508078,108.772981 96.5248685,108.772981 C101.541659,108.772981 104,105 104,105 L104,109.227019 Z"/>
    <path fill="#007FBA" d="M104,116.227019 C104,116.227019 101.541659,120 96.5248685,120 C91.508078,120 89.1430197,116.227019 89.1430197,116.227019 L89.1430197,116.227019 C89.1430197,116.227019 86.6846786,120 81.6678881,120 C76.6499601,120 74.2860393,116.227019 74.2860393,116.227019 C74.2860393,116.227019 71.8276982,120 66.8097702,120 C61.7929797,120 59.429059,116.227019 59.429059,116.227019 L59.4279214,116.227019 C59.4279214,116.227019 56.9695803,120 51.9527898,120 C46.9359994,120 44.5720786,116.227019 44.5720786,116.227019 C44.5720786,116.227019 42.1125999,120 37.0958095,120 C32.079019,120 29.7139607,116.227019 29.7139607,116.227019 L29.7139607,116.227019 C29.7139607,116.227019 27.2556196,120 22.2388292,120 C17.2209011,120 14.8569803,116.227019 14.8569803,116.227019 L14.8569803,116.227019 C14.8569803,116.227019 12.3986393,120 7.38071122,120 C2.36392076,120 0,116.227019 0,116.227019 L0,112 C0,112 2.36392076,115.772981 7.38071122,115.772981 C12.3986393,115.772981 14.8569803,112 14.8569803,112 L14.8569803,112 C14.8569803,112 17.2209011,115.772981 22.2388292,115.772981 C27.2556196,115.772981 29.7139607,112 29.7139607,112 L29.7139607,112 C29.7139607,112 32.079019,115.772981 37.0958095,115.772981 C42.1125999,115.772981 44.570941,112 44.570941,112 C44.570941,112 46.9359994,115.772981 51.9527898,115.772981 C56.9695803,115.772981 59.4279214,112 59.4279214,112 L59.429059,112 C59.429059,112 61.7929797,115.772981 66.8097702,115.772981 C71.8276982,115.772981 74.2860393,112 74.2860393,112 C74.2860393,112 76.6499601,115.772981 81.6678881,115.772981 C86.6846786,115.772981 89.1430197,112 89.1430197,112 L89.1430197,112 C89.1430197,112 91.508078,115.772981 96.5248685,115.772981 C101.541659,115.772981 104,112 104,112 L104,116.227019 Z"/>
    <path fill="#007FBA" d="M104,122.227019 C104,122.227019 101.541659,126 96.5248685,126 C91.508078,126 89.1430197,122.227019 89.1430197,122.227019 C89.1430197,122.227019 86.6846786,126 81.6678881,126 C76.6499601,126 74.2860393,122.227019 74.2860393,122.227019 C74.2860393,122.227019 71.8276982,126 66.8097702,126 C61.7929797,126 59.429059,122.227019 59.429059,122.227019 C59.4279214,122.227019 56.9695803,126 51.9527898,126 C46.9359994,126 44.5720786,122.227019 44.5720786,122.227019 C44.5720786,122.227019 42.1125999,126 37.0958095,126 C32.079019,126 29.7139607,122.227019 29.7139607,122.227019 C29.7139607,122.227019 27.2556196,126 22.2388292,126 C17.2209011,126 14.8569803,122.227019 14.8569803,122.227019 C14.8569803,122.227019 12.3986393,126 7.38071122,126 C2.36392076,126 0,122.227019 0,122.227019 L0,118 C0,118 2.36392076,121.772981 7.38071122,121.772981 C12.3986393,121.772981 14.8569803,118 14.8569803,118 C14.8569803,118 17.2209011,121.772981 22.2388292,121.772981 C27.2556196,121.772981 29.7139607,118 29.7139607,118 C29.7139607,118 32.079019,121.772981 37.0958095,121.772981 C42.1125999,121.772981 44.570941,118 44.570941,118 C44.570941,118 46.9359994,121.772981 51.9527898,121.772981 C56.9695803,121.772981 59.4279214,118 59.4279214,118 C59.429059,118 61.7929797,121.772981 66.8097702,121.772981 C71.8276982,121.772981 74.2860393,118 74.2860393,118 C74.2860393,118 76.6499601,121.772981 81.6678881,121.772981 C86.6846786,121.772981 89.1430197,118 89.1430197,118 C89.1430197,118 91.508078,121.772981 96.5248685,121.772981 C101.541659,121.772981 104,118 104,118 L104,122.227019 Z"/>
  </g>
</svg>
