<svg xmlns="http://www.w3.org/2000/svg" width="78" height="72" viewBox="0 0 78 72">
  <g fill="#FA5144" fill-rule="evenodd">
    <path d="M16.6109737 1.84957971C16.6109737 2.78428151 15.8549488 3.5423144 14.922723 3.5423144 13.9904972 3.5423144 13.2344724 2.78428151 13.2344724 1.84957971 13.2344724.914877908 13.9904972.156845017 14.922723.156845017 15.8549488.156845017 16.6109737.914877908 16.6109737 1.84957971M20.7504661 4.15777959C20.7504661 5.09248139 19.9944412 5.85051429 19.0622154 5.85051429 18.1299896 5.85051429 17.3739647 5.09248139 17.3739647 4.15777959 17.3739647 3.22307779 18.1299896 2.4650449 19.0622154 2.4650449 19.9944412 2.4650449 20.7504661 3.22307779 20.7504661 4.15777959M22.831276 7.90870711C22.831276 8.84340892 22.0752512 9.60144181 21.1430253 9.60144181 20.2107995 9.60144181 19.4547747 8.84340892 19.4547747 7.90870711 19.4547747 6.97400531 20.2107995 6.21597242 21.1430253 6.21597242 22.0752512 6.21597242 22.831276 6.97400531 22.831276 7.90870711M25.3547396 11.6596346C25.3547396 12.5943364 24.5987147 13.3523693 23.6664889 13.3523693 22.7342631 13.3523693 21.9782382 12.5943364 21.9782382 11.6596346 21.9782382 10.7249328 22.7342631 9.96689994 23.6664889 9.96689994 24.5987147 9.96689994 25.3547396 10.7249328 25.3547396 11.6596346M15.2828081 6.42170953C15.2828081 7.35641133 14.5267832 8.11444422 13.5945574 8.11444422 12.6623316 8.11444422 11.9063067 7.35641133 11.9063067 6.42170953 11.9063067 5.48700773 12.6623316 4.72897484 13.5945574 4.72897484 14.5267832 4.72897484 15.2828081 5.48700773 15.2828081 6.42170953M16.6109737 10.5384033C16.6109737 11.4731051 15.8549488 12.231138 14.922723 12.231138 13.9904972 12.231138 13.2344724 11.4731051 13.2344724 10.5384033 13.2344724 9.60370153 13.9904972 8.84566863 14.922723 8.84566863 15.8549488 8.84566863 16.6109737 9.60370153 16.6109737 10.5384033M17.8285016 14.8778848C17.8285016 15.8125866 17.0724767 16.5706195 16.1402509 16.5706195 15.2080251 16.5706195 14.4520002 15.8125866 14.4520002 14.8778848 14.4520002 13.943183 15.2080251 13.1851501 16.1402509 13.1851501 17.0724767 13.1851501 17.8285016 13.943183 17.8285016 14.8778848M16.1404558 4.85110236C16.1404558 4.85110236 21.978648 16.9662757 28.1559245 24.8732367 33.3876576 31.5691939 37.2722733 34.3537836 38.1778641 35.0347806 39.0834549 35.7157776 40.5955047 37.1034503 39.7585503 38.2168753 39.0332581 39.1823914 37.8305844 39.0539983 36.3656581 38.0432878 34.6517968 36.8610441 29.8431507 32.0478434 25.5098374 25.5429351 22.5861314 21.1539452 16.4426609 6.69790878 16.1404558 4.85110236"/>
    <path d="M35.9140319,30.747573 C35.9140319,30.747573 28.2982226,21.1568398 28.3125438,11.8065656 C28.3227732,5.0082266 33.210394,4.65009616 34.8092536,4.7544656 C34.8092536,4.7544656 37.30728,0.559223301 41.9555321,0.559223301 C45.2545227,0.559223301 48.00317,3.00883551 48.00317,3.00883551 C48.00317,3.00883551 55.6731953,2.37443302 57.0490534,7.79959757 C57.7988704,10.7567318 55.6496676,15.5055414 54.6001283,17.1058729 C53.5505889,18.7051811 51.1016638,21.9048208 51.0014154,23.4539907 C51.0014154,23.4539907 52.6125504,22.6384766 55.0440854,19.6833888 C57.4694829,16.7364869 58.5435728,12.6394747 61.8425634,12.6394747 C64.5410865,12.6394747 66.893855,15.806371 66.893855,15.806371 C66.893855,15.806371 77.3923171,15.2169906 74.0830971,26.2811748 C74.0830971,26.2811748 75.1715083,27.5960251 76.123868,28.6847416 C77.0752049,29.7724349 77.8004713,31.4505318 77.3473076,33.3547626 C76.894144,35.2589933 75.4886205,38.1618963 72.0893816,39.7489258 C68.6891197,41.3359552 67.8728113,41.2899099 66.6943812,41.2899099 C65.515951,41.2899099 61.9346282,39.4307013 58.8514786,38.8873662 C55.7693519,38.343008 52.244291,37.9132515 52.244291,37.9132515 C52.244291,37.9132515 52.3240805,39.0684779 55.4972491,39.83897 C58.6704177,40.6104853 63.2941192,41.1538203 66.3322594,44.1467676 C69.3693766,47.1397148 70.8014966,49.5054222 70.6378257,51.1753333 C70.4117554,53.4878327 68.1899236,54.5765492 66.5133203,54.9387726 C66.5133203,54.9387726 67.2385867,59.5637714 65.0627874,61.42298 C62.886988,63.2821886 59.5317356,62.5116965 59.5317356,62.5116965 C59.5317356,62.5116965 59.7127965,70.6279556 51.0546085,67.8621653 C51.0546085,67.8621653 47.3832667,71.5805825 42.6235138,71.5805825 C37.8637609,71.5805825 33.9643029,66.1390463 33.9643029,63.7815248 C33.9643029,61.42298 34.6895693,59.7909284 34.8256207,58.1588769 C35.0261175,55.7532635 34.9391674,55.857633 34.8716531,53.8961014 C34.8716531,53.8961014 34.1913962,54.4404597 33.6471906,56.525802 C33.102985,58.6121677 32.3777185,59.7909284 31.1992884,61.3779579 C30.0208583,62.9649874 28.9324471,63.6904573 27.5279467,65.4135763 C26.1224232,67.1366954 24.3547781,69.9024856 20.7274228,69.9024856 C17.1010905,69.9024856 15.7415995,67.9071874 14.5631694,63.4182782 C14.5631694,63.4182782 13.0666041,64.1437481 11.3439684,64.1437481 C9.62133269,64.1437481 5.63185571,62.0123604 5.63185571,59.2465702 C5.63185571,58.0227873 6.04000989,56.4357578 6.04000989,56.4357578 C6.04000989,56.4357578 4.86157977,54.7576609 4.86157977,52.8073848 C4.86157977,50.858132 5.63185571,49.4071921 7.21844001,48.0462964 C8.80604726,46.686424 10.3926316,45.733797 12.5223985,45.5977075 C14.6531884,45.4616179 16.2939887,45.306087 19.2768899,44.3739246 C24.3547781,42.7868951 25.8503204,40.8816412 25.8503204,40.8816412 C25.8503204,40.8816412 23.6745211,41.1998657 21.2266189,41.789246 C18.7787168,42.3786264 14.9703007,44.5100142 12.2052862,44.5100142 C8.94107571,44.5100142 1.96051394,42.7408498 1.96051394,37.4814485 C1.96051394,36.2116202 2.3226357,34.8057025 2.3226357,34.8057025 C2.3226357,34.8057025 0.6,32.9014717 0.6,30.9511957 C0.6,29.0019429 3.00289267,26.598376 6.49317356,25.102414 C6.49317356,25.102414 6.81130877,18.7542961 11.2539494,18.7542961 C15.6955671,18.7542961 24.8304465,24.6030778 26.9152039,30.2717711 C26.9152039,30.2717711 22.3600396,27.5049576 18.9597776,28.3665171 C18.9597776,28.3665171 25.3992027,29.8184803 27.9811103,31.9948901 C27.9811103,31.9948901 20.7171934,30.3618153 15.5145062,31.1333306 C15.5145062,31.1333306 27.164802,32.4031588 30.6786105,34.5560344 C30.6786105,34.5560344 23.2663669,35.146438 19.1408385,36.6874221 C19.1408385,36.6874221 29.9533441,35.4636392 34.5770456,38.3204969 C34.5770456,38.3204969 26.394526,41.2673988 23.175325,47.0946927 C23.175325,47.0946927 30.2244239,41.4720448 35.2798073,40.6329963 C35.2798073,40.6329963 30.2019192,44.9714908 29.4991575,48.8485086 C29.4991575,48.8485086 31.5951673,46.3415956 33.3556519,44.4189467 C35.1202282,42.4922049 36.8428639,41.6981786 37.7502142,40.586951 C37.7502142,40.586951 40.2656306,43.9206338 40.6287753,46.8900467 C40.9816906,49.7796478 41.081939,51.1753333 41.5801121,52.1279602 C41.5801121,52.1279602 42.351411,44.1467676 40.311663,40.3383061 C40.311663,40.3383061 47.6778742,46.0745326 50.3068373,50.3137738 C50.3068373,50.3137738 46.930103,43.0815853 42.1018129,39.5442798 C42.1018129,39.5442798 46.930103,40.0200817 53.979202,44.985816 C53.979202,44.985816 50.3753744,40.4283504 41.671154,37.2317804 C41.671154,37.2317804 45.0489112,33.0600724 55.6558052,29.4102116 C55.6558052,29.4102116 50.6924867,29.274122 43.0766775,33.6269417 C43.0766775,33.6269417 47.5725111,28.4688401 55.4297349,24.0136974 C55.4297349,24.0136974 50.4203839,25.2385036 46.8032581,27.724952 C43.1042969,30.2687014 41.9555321,31.6541546 41.6261445,33.0600724 C41.6261445,33.0600724 40.6962895,31.2458859 44.3001171,23.6739851 C44.3001171,23.6739851 41.3090323,26.3487079 39.8810041,30.5204159 C39.8810041,30.5204159 39.5567312,24.6941453 42.4649576,19.3661876 C42.4649576,19.3661876 38.4979854,22.7899146 37.8862656,29.5688122 C37.8862656,29.5688122 36.6618031,23.7415183 38.112336,17.3483783 C38.112336,17.3483783 35.4158587,19.978079 35.2798073,23.9686753 C35.1437559,27.9592717 35.9140319,30.747573 35.9140319,30.747573"/>
  </g>
</svg>
